Coordinates
version=1
nRows=18
nColumns=38
inDegrees=yes

Units are S.I. units (second, meters, Newtons, ...)
Angles are in degrees.

endheader
time	pelvis_tilt	pelvis_list	pelvis_rotation	pelvis_tx	pelvis_ty	pelvis_tz	hip_flexion_r	hip_adduction_r	hip_rotation_r	knee_angle_r	ankle_angle_r	subtalar_angle_r	mtp_angle_r	hip_flexion_l	hip_adduction_l	hip_rotation_l	knee_angle_l	ankle_angle_l	subtalar_angle_l	mtp_angle_l	lumbar_extension	lumbar_bending	lumbar_rotation	arm_flex_r	arm_add_r	arm_rot_r	elbow_flex_r	pro_sup_r	wrist_flex_r	wrist_dev_r	arm_flex_l	arm_add_l	arm_rot_l	elbow_flex_l	pro_sup_l	wrist_flex_l	wrist_dev_l
      5.64000000	      0.51270376	      3.59266479	      0.41836803	     -0.02663764	      0.85008520	      2.57311105	     28.16237046	     -4.43450339	     -9.30681068	     -7.06530779	     -4.59691742	      0.00000000	      0.00000000	    -19.79735128	      4.97800829	     -6.23111416	     -3.95331608	      4.83129767	      0.00000000	      0.00000000	     -7.47686930	     -4.42805293	     -2.91705564	     -3.68125402	    -12.96558026	     -7.92697314	      4.28167076	     98.47002544	      0.00000000	      0.00000000	     21.17015407	    -10.48555126	     20.81654000	    155.63846744	     78.58326235	      0.00000000	      0.00000000
      5.65000000	      0.46107573	      3.44016338	      1.12771803	     -0.02539034	      0.84742667	      2.57393006	     27.89408777	     -4.43518026	    -10.27369008	     -5.94081429	     -4.43601406	      0.00000000	      0.00000000	    -20.53498240	      4.34527619	     -5.23541773	     -4.75987230	      4.18870762	      0.00000000	      0.00000000	     -7.29208802	     -4.13593985	     -3.51002748	     -4.12727861	    -13.20628574	     -8.51228426	      3.58375335	     99.47749078	      0.00000000	      0.00000000	     20.78393709	    -10.77614401	     20.33498383	    155.87091677	     78.09109110	      0.00000000	      0.00000000
      5.66000000	      0.35190674	      3.29226081	      1.92110076	     -0.02394378	      0.84499615	      2.57477487	     27.70413368	     -4.48188667	    -11.15099854	     -5.65027579	     -4.37639532	      0.00000000	      0.00000000	    -21.05850031	      3.62397944	     -4.07477631	     -5.79768297	      3.34341436	      0.00000000	      0.00000000	     -7.02526111	     -3.86095526	     -4.20504532	     -4.50076525	    -13.40675554	     -9.01782907	      2.99139918	    100.37622633	      0.00000000	      0.00000000	     20.29364829	    -11.07257680	     19.80833369	    156.10344672	     77.71672373	      0.00000000	      0.00000000
      5.67000000	      0.20448211	      3.15315044	      2.75865720	     -0.02218450	      0.84277972	      2.57569164	     27.53258439	     -4.58145481	    -11.93465267	     -6.13497620	     -4.66808467	      0.00000000	      0.00000000	    -21.38707682	      2.85585319	     -2.83381440	     -7.05877258	      2.27087515	      0.00000000	      0.00000000	     -6.69203720	     -3.62726234	     -4.95836082	     -4.80648427	    -13.56898274	     -9.44924077	      2.49834355	    101.11362080	      0.00000000	      0.00000000	     19.70738301	    -11.35727854	     19.23580429	    156.33170193	     77.48117412	      0.00000000	      0.00000000
      5.68000000	      0.03096883	      3.01894549	      3.57814013	     -0.02018481	      0.84076021	      2.57679952	     27.37215059	     -4.69340829	    -12.64650804	     -7.23087333	     -5.47987055	      0.00000000	      0.00000000	    -21.53425099	      2.07963863	     -1.61942753	     -8.54961802	      0.91260630	      0.00000000	      0.00000000	     -6.31778805	     -3.43525648	     -5.69965768	     -5.03865066	    -13.69218209	     -9.80281115	      2.09567057	    101.65914181	      0.00000000	      0.00000000	     19.03126754	    -11.62162059	     18.61204381	    156.55373464	     77.36642152	      0.00000000	      0.00000000
      5.69000000	     -0.14655232	      2.86771149	      4.29909583	     -0.01805843	      0.83900651	      2.57811884	     27.29842665	     -4.75496128	    -13.27587267	     -8.69397983	     -6.78520576	      0.00000000	      0.00000000	    -21.48999505	      1.30603078	     -0.55011243	    -10.30161356	     -0.82017755	      0.00000000	      0.00000000	     -5.93058153	     -3.25139157	     -6.34457039	     -5.17517727	    -13.77774817	    -10.06532869	      1.77654679	    102.00763054	      0.00000000	      0.00000000	     18.26748938	    -11.85958519	     17.93616616	    156.76490368	     77.32189205	      0.00000000	      0.00000000
      5.70000000	     -0.30818393	      2.64095263	      4.83956624	     -0.01590549	      0.83771347	      2.57968415	     27.39734771	     -4.70006890	    -13.73313630	    -10.30641809	     -8.31974066	      0.00000000	      0.00000000	    -21.20302063	      0.52232638	      0.26322909	    -12.36219624	     -3.03009965	      0.00000000	      0.00000000	     -5.55295401	     -3.00897092	     -6.81536390	     -5.18175144	    -13.83442443	    -10.21640989	      1.54008486	    102.17819653	      0.00000000	      0.00000000	     17.42044181	    -12.05773297	     17.22128940	    156.95476845	     77.27936026	      0.00000000	      0.00000000
      5.71000000	     -0.46591835	      2.26550392	      5.14574939	     -0.01399693	      0.83707466	      2.58158808	     27.65794004	     -4.44292494	    -13.86347643	    -11.98880985	     -9.66098886	      0.00000000	      0.00000000	    -20.58906705	     -0.28934630	      0.74563482	    -14.78021442	     -5.80456040	      0.00000000	      0.00000000	     -5.20493629	     -2.62960560	     -7.06049109	     -5.02482392	    -13.87909079	    -10.23371400	      1.39197989	    102.20789447	      0.00000000	      0.00000000	     16.50541453	    -12.19175141	     16.49735879	    157.10571007	     77.17060690	      0.00000000	      0.00000000
      5.72000000	     -0.63188902	      1.70286231	      5.21179191	     -0.01257415	      0.83715139	      2.58373735	     27.97718917	     -3.87542382	    -13.52319258	    -13.78855220	    -10.39894056	      0.00000000	      0.00000000	    -19.58453909	     -1.15204567	      0.88496236	    -17.60372995	     -9.17500976	      0.00000000	      0.00000000	     -4.91593195	     -2.05891018	     -7.06144638	     -4.68839765	    -13.92982952	    -10.10018931	      1.34076910	    102.14110053	      0.00000000	      0.00000000	     15.55246314	    -12.23405764	     15.80401873	    157.19710665	     76.94341260	      0.00000000	      0.00000000
      5.73000000	     -0.76767922	      0.95878339	      5.06855730	     -0.01154496	      0.83792467	      2.58594829	     28.24490059	     -2.92751942	    -12.66800846	    -15.75091409	    -10.29974248	      0.00000000	      0.00000000	    -18.20662144	     -2.09908372	      0.74026568	    -20.88329657	    -13.07156855	      0.00000000	      0.00000000	     -4.72965980	     -1.28899086	     -6.82710377	     -4.18338126	    -13.99382078	     -9.81127093	      1.39287817	    102.01728891	      0.00000000	      0.00000000	     14.60458387	    -12.16634430	     15.17915990	    157.21337509	     76.57309344	      0.00000000	      0.00000000
      5.74000000	     -0.80480046	      0.05694678	      4.75992485	     -0.01076412	      0.83928722	      2.58824275	     28.37471060	     -1.62835192	    -11.39464482	    -17.81148550	     -9.37938307	      0.00000000	      0.00000000	    -16.55296418	     -3.15672666	      0.42335369	    -24.65470373	    -17.28840000	      0.00000000	      0.00000000	     -4.69079637	     -0.35327242	     -6.38414355	     -3.54208122	    -14.06128657	     -9.37976510	      1.55071268	    101.86069103	      0.00000000	      0.00000000	     13.71176950	    -11.98785296	     14.65109208	    157.14996836	     76.06800144	      0.00000000	      0.00000000
      5.75000000	     -0.70181667	     -0.96910824	      4.33477790	     -0.01025060	      0.84106152	      2.59070463	     28.28325314	     -0.08869022	     -9.91381147	    -19.79318202	     -7.86666655	      0.00000000	      0.00000000	    -14.73342306	     -4.31459975	      0.06369125	    -28.89713978	    -21.47926985	      0.00000000	      0.00000000	     -4.81992892	      0.69166095	     -5.77067558	     -2.80262761	    -14.11407112	     -8.83666461	      1.81423488	    101.67508506	      0.00000000	      0.00000000	     12.92207708	    -11.71569361	     14.23613907	    157.01372012	     75.46802190	      0.00000000	      0.00000000
      5.76000000	     -0.46986991	     -2.06591196	      3.84899526	     -0.00994154	      0.84312276	      2.59324308	     27.89060747	      1.55973435	     -8.47325182	    -21.48111099	     -6.08967127	      0.00000000	      0.00000000	    -12.79843220	     -5.51437948	     -0.22624078	    -33.49941861	    -25.19764195	      0.00000000	      0.00000000	     -5.09645853	      1.77976649	     -5.03469497	     -1.99373445	    -14.14143997	     -8.22704883	      2.18359259	    101.44563093	      0.00000000	      0.00000000	     12.27129544	    -11.37980096	     13.93897474	    156.81732393	     74.83632253	      0.00000000	      0.00000000
      5.77000000	     -0.16439485	     -3.16088269	      3.36271443	     -0.00980606	      0.84535197	      2.59564384	     27.15885354	      3.19137327	     -7.27055304	    -22.70895655	     -4.34889753	      0.00000000	      0.00000000	    -10.73362509	     -6.66855257	     -0.37433129	    -38.27364799	    -27.98400752	      0.00000000	      0.00000000	     -5.46197504	      2.84213556	     -4.23343928	     -1.12882799	    -14.14600603	     -7.60165541	      2.65974644	    101.14737740	      0.00000000	      0.00000000	     11.77305682	    -11.01666455	     13.75332780	    156.57376581	     74.24663985	      0.00000000	      0.00000000
      5.78000000	      0.13596055	     -4.17339102	      2.93448602	     -0.01010069	      0.84766090	      2.59775252	     26.12943165	      4.68261438	     -6.39965954	    -23.41410152	     -2.83198248	      0.00000000	      0.00000000	     -8.51298989	     -7.68818656	     -0.35615384	    -43.01200275	    -29.48753564	      0.00000000	      0.00000000	     -5.83965470	      3.81075685	     -3.42795899	     -0.21142804	    -14.13586022	     -7.00634524	      3.24213935	    100.75747346	      0.00000000	      0.00000000	     11.41328394	    -10.66371247	     13.66223355	    156.29810955	     73.76872512	      0.00000000	      0.00000000
      5.79000000	      0.35690778	     -5.02824460	      2.61042352	     -0.01097768	      0.85007480	      2.59958086	     24.91155439	      5.91777655	     -5.85422052	    -23.64992173	     -1.59148182	      0.00000000	      0.00000000	     -6.13465590	     -8.49318599	     -0.18368234	    -47.53519381	    -29.58541537	      0.00000000	      0.00000000	     -6.16028122	      4.62283034	     -2.67409695	      0.75395963	    -14.11322766	     -6.47287611	      3.92507547	    100.26631655	      0.00000000	      0.00000000	     11.15369828	    -10.35491312	     13.63891830	    156.01364594	     73.45365117	      0.00000000	      0.00000000
      5.80000000	      0.45932687	     -5.66498793	      2.40905963	     -0.01226318	      0.85260928	      2.60112526	     23.62824537	      6.81373405	     -5.57263085	    -23.55294133	     -0.57588939	      0.00000000	      0.00000000	     -3.61022132	     -9.01275174	      0.12051132	    -51.70192381	    -28.44048069	      0.00000000	      0.00000000	     -6.38322939	      5.22668072	     -2.01519522	      1.75622508	    -14.07048773	     -6.01439485	      4.69661838	     99.68292569	      0.00000000	      0.00000000	     10.94560104	    -10.11764985	     13.65059528	    155.75254238	     73.32153981	      0.00000000	      0.00000000
      5.81000000	      0.45037515	     -6.04217887	      2.32128921	     -0.01379210	      0.85520679	      2.60228081	     22.36712466	      7.34089561	     -5.48894309	    -23.27898554	      0.31330831	      0.00000000	      0.00000000	     -0.95589469	     -9.19522565	      0.54495517	    -55.40389898	    -26.44928670	      0.00000000	      0.00000000	     -6.50117420	      5.58917313	     -1.47799454	      2.78266080	    -13.99589614	     -5.62695694	      5.54200777	     99.03256157	      0.00000000	      0.00000000	     10.74712148	     -9.97049682	     13.66558816	    155.54760402	     73.35581077	      0.00000000	      0.00000000
